# xmcd
#
# Track frame offsets:
#	150
#	8042
#	23280
#	46468
#	73364
#	100289
#	121031
#	148664
#	187789
#	209647
#	237445
#	275143
#	289712
#	305156
#
# Disc length: 4351 seconds
#
# Revision: 2
# Processed by: cddbd v1.5.2PL0 Copyright (c) Steve Scherf et al.
# Submitted via: audiograbber 1.83.01
#
DISCID=cf10fd0e
DTITLE=Andreas Gabalier - Volksrock´n´ Roller-Live [CD 2)
DYEAR=2012
DGENRE=Volksmusik
TTITLE0=Ich hab die schönen Maderln net erfunden
TTITLE1=Mit Dir
TTITLE2=12 Ender Hirsch
TTITLE3=In Deine Arm zu liegn
TTITLE4=Amoi seg´ ma uns wieder
TTITLE5=Kleiner Schmetterling
TTITLE6=Sie
TTITLE7=Der Frühwirth
TTITLE8=Bergbauernbuam
TTITLE9=Obersteirer
TTITLE10=I sing a Liad für Di
TTITLE11=VolksRock´n´ Roller (Reprise/Verabschidung)
TTITLE12=So liab hob i Di
TTITLE13=Sweet Little Rehlein
EXTD=
EXTT0=
EXTT1=
EXTT2=
EXTT3=
EXTT4=
EXTT5=
EXTT6=
EXTT7=
EXTT8=
EXTT9=
EXTT10=
EXTT11=
EXTT12=
EXTT13=
PLAYORDER=
